<svg xmlns="http://www.w3.org/2000/svg" fill="none" viewBox="0 0 24 24" id="Sports-Basketball--Streamline-Sharp-Material" height="24" width="24"><desc>Sports Basketball Streamline Icon: https://streamlinehq.com</desc><path fill="#000000" d="M3.525 11.25h3.425c-0.11665 -0.8 -0.35 -1.55415 -0.7 -2.2625 -0.35 -0.70835 -0.78335 -1.32085 -1.3 -1.8375 -0.383335 0.58335 -0.708335 1.21665 -0.975 1.9 -0.266665 0.68335 -0.416665 1.41665 -0.45 2.2Zm13.525 0h3.425c-0.03335 -0.78335 -0.18335 -1.51665 -0.45 -2.2 -0.26665 -0.68335 -0.59165 -1.31665 -0.975 -1.9 -0.56665 0.56665 -1.0125 1.19165 -1.3375 1.875 -0.325 0.68335 -0.54585 1.425 -0.6625 2.225ZM4.95 16.825c0.56665 -0.56665 1.0125 -1.1875 1.3375 -1.8625 0.325 -0.675 0.54585 -1.4125 0.6625 -2.2125H3.525c0.033335 0.78335 0.183335 1.5125 0.45 2.1875 0.266665 0.675 0.591665 1.30415 0.975 1.8875Zm14.1 0c0.38335 -0.58335 0.70835 -1.2125 0.975 -1.8875 0.26665 -0.675 0.41665 -1.40415 0.45 -2.1875H17.05c0.11665 0.8 0.3375 1.5375 0.6625 2.2125 0.325 0.675 0.77085 1.29585 1.3375 1.8625ZM8.475 11.25h2.775V3.525c-1.03335 0.116665 -1.99585 0.383335 -2.8875 0.8 -0.89165 0.416665 -1.69585 0.975 -2.4125 1.675 0.68335 0.68335 1.24165 1.475 1.675 2.375 0.43335 0.9 0.71665 1.85835 0.85 2.875Zm4.275 0h2.775c0.13335 -1.01665 0.42085 -1.975 0.8625 -2.875 0.44165 -0.9 1.00415 -1.69165 1.6875 -2.375 -0.71665 -0.7 -1.525 -1.258335 -2.425 -1.675 -0.9 -0.416665 -1.86665 -0.683335 -2.9 -0.8V11.25Zm-1.5 9.225V12.75h-2.775c-0.13335 1.01665 -0.41665 1.97085 -0.85 2.8625 -0.43335 0.89165 -0.99165 1.67915 -1.675 2.3625 0.71665 0.7 1.5 1.2625 2.35 1.6875 0.85 0.425 1.83335 0.69585 2.95 0.8125Zm1.5 0c1.11665 -0.11665 2.10415 -0.3875 2.9625 -0.8125 0.85835 -0.425 1.64585 -0.9875 2.3625 -1.6875 -0.68335 -0.68335 -1.24585 -1.47085 -1.6875 -2.3625 -0.44165 -0.89165 -0.72915 -1.84585 -0.8625 -2.8625H12.75v7.725ZM12 22c-1.38335 0 -2.68335 -0.2625 -3.9 -0.7875 -1.21665 -0.525 -2.275 -1.2375 -3.175 -2.1375 -0.9 -0.9 -1.6125 -1.95835 -2.1375 -3.175C2.2625 14.68335 2 13.38335 2 12s0.2625 -2.68335 0.7875 -3.9c0.525 -1.21665 1.2375 -2.275 2.1375 -3.175 0.9 -0.9 1.95835 -1.6125 3.175 -2.1375C9.31665 2.2625 10.61665 2 12 2s2.68335 0.2625 3.9 0.7875c1.21665 0.525 2.275 1.2375 3.175 2.1375 0.9 0.9 1.6125 1.95835 2.1375 3.175C21.7375 9.31665 22 10.61665 22 12s-0.2625 2.68335 -0.7875 3.9c-0.525 1.21665 -1.2375 2.275 -2.1375 3.175 -0.9 0.9 -1.95835 1.6125 -3.175 2.1375C14.68335 21.7375 13.38335 22 12 22Z" stroke-width="0.5"></path></svg>