<svg xmlns="http://www.w3.org/2000/svg" fill="none" viewBox="0 0 24 24" id="Sports-Cricket--Streamline-Sharp-Material" height="24" width="24"><desc>Sports Cricket Streamline Icon: https://streamlinehq.com</desc><path fill="#000000" d="M11.3498 17.375 1.674805 7.725l3.799995 -3.8 9.65 9.675 -3.775 3.775Zm0 -2.1 1.65 -1.65 -7.55 -7.55 -1.649995 1.65 7.549995 7.55Zm7.375 6.625 -4.4 -4.4 1.1 -1.1 4.4 4.4 -1.1 1.1Zm0.05 -13.4c-0.91665 0 -1.6875 -0.3125 -2.3125 -0.9375s-0.9375 -1.39585 -0.9375 -2.3125c0 -0.916665 0.3125 -1.6875 0.9375 -2.3125S17.85815 2 18.7748 2s1.6875 0.3125 2.3125 0.9375 0.9375 1.395835 0.9375 2.3125c0 0.91665 -0.3125 1.6875 -0.9375 2.3125S19.69145 8.5 18.7748 8.5Zm-0.003 -1.5c0.48535 0 0.89885 -0.16985 1.2405 -0.5095 0.34165 -0.33965 0.5125 -0.75215 0.5125 -1.2375 0 -0.485335 -0.16985 -0.898835 -0.5095 -1.2405C19.67565 3.670835 19.26315 3.5 18.7778 3.5c-0.48535 0 -0.89885 0.169835 -1.2405 0.5095 -0.34165 0.339665 -0.5125 0.752165 -0.5125 1.2375 0 0.48535 0.16985 0.89885 0.5095 1.2405 0.33965 0.34165 0.75215 0.5125 1.2375 0.5125Z" stroke-width="0.5"></path></svg>