<svg xmlns="http://www.w3.org/2000/svg" fill="none" viewBox="0 0 24 24" id="Sports-Soccer--Streamline-Sharp-Material" height="24" width="24"><desc>Sports Soccer Streamline Icon: https://streamlinehq.com</desc><path fill="#000000" d="M12 22c-1.36665 0 -2.65835 -0.2625 -3.875 -0.7875 -1.21665 -0.525 -2.27915 -1.24165 -3.1875 -2.15 -0.908335 -0.90835 -1.625 -1.97085 -2.15 -3.1875C2.2625 14.65835 2 13.36665 2 12c0 -1.38335 0.2625 -2.67915 0.7875 -3.8875 0.525 -1.20835 1.241665 -2.26665 2.15 -3.175 0.90835 -0.908335 1.97085 -1.625 3.1875 -2.15C9.34165 2.2625 10.63335 2 12 2c1.38335 0 2.67915 0.2625 3.8875 0.7875 1.20835 0.525 2.26665 1.241665 3.175 2.15 0.90835 0.90835 1.625 1.96665 2.15 3.175C21.7375 9.32085 22 10.61665 22 12c0 1.36665 -0.2625 2.65835 -0.7875 3.875 -0.525 1.21665 -1.24165 2.27915 -2.15 3.1875s-1.96665 1.625 -3.175 2.15C14.67915 21.7375 13.38335 22 12 22Zm5.125 -12.325 1.725 -0.6 0.45 -1.6c-0.56665 -0.88335 -1.26665 -1.6375 -2.1 -2.2625 -0.83335 -0.625 -1.775 -1.104165 -2.825 -1.4375L12.75 4.85v1.75l4.375 3.075Zm-10.225 0 4.35 -3.075V4.85l-1.6 -1.075c-1.05 0.333335 -1.99165 0.8125 -2.825 1.4375 -0.83335 0.625 -1.53335 1.37915 -2.1 2.2625l0.55 1.6 1.625 0.6Zm-1.35 8 1.5 -0.175 0.975 -1.625 -1.55 -4.775L4.7 10.5 3.5 11.475c0 1.2 0.133335 2.29585 0.4 3.2875 0.266665 0.99165 0.816665 1.9625 1.65 2.9125ZM12 20.5c0.45 0 0.90415 -0.04165 1.3625 -0.125 0.45835 -0.08335 0.9375 -0.19165 1.4375 -0.325l0.825 -1.8 -0.8 -1.375H9.2l-0.8 1.375 0.825 1.8c0.43335 0.13335 0.89165 0.24165 1.375 0.325 0.48335 0.08335 0.95 0.125 1.4 0.125Zm-2.65 -5.125h5.2l1.525 -4.575L12 7.875l-4.15 2.925 1.5 4.575Zm9.125 2.3c0.81665 -0.95 1.35835 -1.92085 1.625 -2.9125 0.26665 -0.99165 0.4 -2.0875 0.4 -3.2875l-1.2 -0.825 -1.75 0.45 -1.55 4.775L16.95 17.5l1.525 0.175Z" stroke-width="0.5"></path></svg>