<svg xmlns="http://www.w3.org/2000/svg" fill="none" viewBox="0 0 24 24" id="Sports-Tennis--Streamline-Sharp-Material" height="24" width="24"><desc>Sports Tennis Streamline Icon: https://streamlinehq.com</desc><path fill="#000000" d="M3.075 20.025 2 18.95l4.35225 -4.35225c0.5485 -0.5485 0.9394 -1.23525 1.17275 -2.06025 0.23335 -0.825 0.35 -1.97915 0.35 -3.4625 0 -0.94965 0.20835 -1.8829 0.625 -2.79975 0.41665 -0.91685 1.05 -1.80025 1.9 -2.65025 1.46665 -1.466665 3.07575 -2.3 4.82725 -2.5 1.75135 -0.2 3.19225 0.266665 4.32275 1.4 1.13335 1.133335 1.6 2.58335 1.4 4.35 -0.2 1.76665 -1.03335 3.38335 -2.5 4.85 -0.85 0.85 -1.7334 1.475 -2.65025 1.875 -0.91685 0.4 -1.8501 0.6 -2.79975 0.6 -1.48335 0 -2.64585 0.10835 -3.4875 0.325s-1.5375 0.6 -2.0875 1.15l-4.35 4.35Zm7.25 -8.3c0.81665 0.81665 1.925 1.12085 3.325 0.9125 1.4 -0.20835 2.65835 -0.87085 3.775 -1.9875 1.11465 -1.10965 1.78085 -2.35375 1.9985 -3.73225 0.21765 -1.3785 -0.08185 -2.476085 -0.8985 -3.29275s-1.92085 -1.120835 -3.3125 -0.9125c-1.39165 0.208335 -2.64585 0.870835 -3.7625 1.9875 -1.11665 1.11665 -1.7875 2.36325 -2.0125 3.73975 -0.225 1.37635 0.07085 2.4714 0.8875 3.28525ZM18.4 23c-1 0 -1.85 -0.35 -2.55 -1.05 -0.7 -0.7 -1.05 -1.55 -1.05 -2.55 0 -1 0.35 -1.85 1.05 -2.55 0.7 -0.7 1.55 -1.05 2.55 -1.05 1 0 1.85 0.35 2.55 1.05 0.7 0.7 1.05 1.55 1.05 2.55 0 1 -0.35 1.85 -1.05 2.55 -0.7 0.7 -1.55 1.05 -2.55 1.05Zm0 -1.5c0.6 0 1.1 -0.2 1.5 -0.6 0.4 -0.4 0.6 -0.9 0.6 -1.5s-0.2 -1.1 -0.6 -1.5c-0.4 -0.4 -0.9 -0.6 -1.5 -0.6s-1.1 0.2 -1.5 0.6c-0.4 0.4 -0.6 0.9 -0.6 1.5s0.2 1.1 0.6 1.5c0.4 0.4 0.9 0.6 1.5 0.6Z" stroke-width="0.5"></path></svg>